<svg id="visual" viewBox="0 0 1020 50" width="1020" height="50" xmlns="http://www.w3.org/2000/svg" xmlns:xlink="http://www.w3.org/1999/xlink" version="1.1"><path d="M0 15L13 14.5C26 14 52 13 78.2 11.8C104.3 10.7 130.7 9.3 156.8 8.7C183 8 209 8 235.2 8.8C261.3 9.7 287.7 11.3 313.8 14.7C340 18 366 23 392.2 25C418.3 27 444.7 26 470.8 24.7C497 23.3 523 21.7 549.2 18.3C575.3 15 601.7 10 627.8 11.7C654 13.3 680 21.7 706.2 24.3C732.3 27 758.7 24 784.8 19.2C811 14.3 837 7.7 863.2 6.5C889.3 5.3 915.7 9.7 941.8 11.8C968 14 994 14 1007 14L1020 14L1020 51L1007 51C994 51 968 51 941.8 51C915.7 51 889.3 51 863.2 51C837 51 811 51 784.8 51C758.7 51 732.3 51 706.2 51C680 51 654 51 627.8 51C601.7 51 575.3 51 549.2 51C523 51 497 51 470.8 51C444.7 51 418.3 51 392.2 51C366 51 340 51 313.8 51C287.7 51 261.3 51 235.2 51C209 51 183 51 156.8 51C130.7 51 104.3 51 78.2 51C52 51 26 51 13 51L0 51Z" fill="#8f9853"></path><path d="M0 12L13 13.3C26 14.7 52 17.3 78.2 20C104.3 22.7 130.7 25.3 156.8 26.3C183 27.3 209 26.7 235.2 23.3C261.3 20 287.7 14 313.8 15.3C340 16.7 366 25.3 392.2 28.8C418.3 32.3 444.7 30.7 470.8 30C497 29.3 523 29.7 549.2 27.5C575.3 25.3 601.7 20.7 627.8 19C654 17.3 680 18.7 706.2 20.5C732.3 22.3 758.7 24.7 784.8 25C811 25.3 837 23.7 863.2 20.8C889.3 18 915.7 14 941.8 15.3C968 16.7 994 23.3 1007 26.7L1020 30L1020 51L1007 51C994 51 968 51 941.8 51C915.7 51 889.3 51 863.2 51C837 51 811 51 784.8 51C758.7 51 732.3 51 706.2 51C680 51 654 51 627.8 51C601.7 51 575.3 51 549.2 51C523 51 497 51 470.8 51C444.7 51 418.3 51 392.2 51C366 51 340 51 313.8 51C287.7 51 261.3 51 235.2 51C209 51 183 51 156.8 51C130.7 51 104.3 51 78.2 51C52 51 26 51 13 51L0 51Z" fill="#928f4e"></path><path d="M0 19L13 20.2C26 21.3 52 23.7 78.2 26C104.3 28.3 130.7 30.7 156.8 30.7C183 30.7 209 28.3 235.2 26.5C261.3 24.7 287.7 23.3 313.8 22.2C340 21 366 20 392.2 19.3C418.3 18.7 444.7 18.3 470.8 18.3C497 18.3 523 18.7 549.2 19.5C575.3 20.3 601.7 21.7 627.8 25.2C654 28.7 680 34.3 706.2 36C732.3 37.7 758.7 35.3 784.8 33C811 30.7 837 28.3 863.2 25.7C889.3 23 915.7 20 941.8 19.8C968 19.7 994 22.3 1007 23.7L1020 25L1020 51L1007 51C994 51 968 51 941.8 51C915.7 51 889.3 51 863.2 51C837 51 811 51 784.8 51C758.7 51 732.3 51 706.2 51C680 51 654 51 627.8 51C601.7 51 575.3 51 549.2 51C523 51 497 51 470.8 51C444.7 51 418.3 51 392.2 51C366 51 340 51 313.8 51C287.7 51 261.3 51 235.2 51C209 51 183 51 156.8 51C130.7 51 104.3 51 78.2 51C52 51 26 51 13 51L0 51Z" fill="#93874b"></path><path d="M0 37L13 36.8C26 36.7 52 36.3 78.2 35.5C104.3 34.7 130.7 33.3 156.8 33.7C183 34 209 36 235.2 36.2C261.3 36.3 287.7 34.7 313.8 35.5C340 36.3 366 39.7 392.2 39.2C418.3 38.7 444.7 34.3 470.8 32C497 29.7 523 29.3 549.2 29.5C575.3 29.7 601.7 30.3 627.8 32.2C654 34 680 37 706.2 38.7C732.3 40.3 758.7 40.7 784.8 38.5C811 36.3 837 31.7 863.2 32.2C889.3 32.7 915.7 38.3 941.8 40.3C968 42.3 994 40.7 1007 39.8L1020 39L1020 51L1007 51C994 51 968 51 941.8 51C915.7 51 889.3 51 863.2 51C837 51 811 51 784.8 51C758.7 51 732.3 51 706.2 51C680 51 654 51 627.8 51C601.7 51 575.3 51 549.2 51C523 51 497 51 470.8 51C444.7 51 418.3 51 392.2 51C366 51 340 51 313.8 51C287.7 51 261.3 51 235.2 51C209 51 183 51 156.8 51C130.7 51 104.3 51 78.2 51C52 51 26 51 13 51L0 51Z" fill="#937f49"></path><path d="M0 46L13 44.7C26 43.3 52 40.7 78.2 39.8C104.3 39 130.7 40 156.8 40C183 40 209 39 235.2 39.7C261.3 40.3 287.7 42.7 313.8 42.2C340 41.7 366 38.3 392.2 38.8C418.3 39.3 444.7 43.7 470.8 45.8C497 48 523 48 549.2 47C575.3 46 601.7 44 627.8 42.2C654 40.3 680 38.7 706.2 38.2C732.3 37.7 758.7 38.3 784.8 38.2C811 38 837 37 863.2 37.7C889.3 38.3 915.7 40.7 941.8 42.5C968 44.3 994 45.7 1007 46.3L1020 47L1020 51L1007 51C994 51 968 51 941.8 51C915.7 51 889.3 51 863.2 51C837 51 811 51 784.8 51C758.7 51 732.3 51 706.2 51C680 51 654 51 627.8 51C601.7 51 575.3 51 549.2 51C523 51 497 51 470.8 51C444.7 51 418.3 51 392.2 51C366 51 340 51 313.8 51C287.7 51 261.3 51 235.2 51C209 51 183 51 156.8 51C130.7 51 104.3 51 78.2 51C52 51 26 51 13 51L0 51Z" fill="#927748"></path></svg>