<svg id="visual" viewBox="0 0 1020 50" width="1020" height="50" xmlns="http://www.w3.org/2000/svg" xmlns:xlink="http://www.w3.org/1999/xlink" version="1.1"><path d="M0 5L13 5.5C26 6 52 7 78.2 7.3C104.3 7.7 130.7 7.3 156.8 7.5C183 7.7 209 8.3 235.2 10.7C261.3 13 287.7 17 313.8 18.3C340 19.7 366 18.3 392.2 15.2C418.3 12 444.7 7 470.8 6.3C497 5.7 523 9.3 549.2 10.5C575.3 11.7 601.7 10.3 627.8 12C654 13.7 680 18.3 706.2 18.8C732.3 19.3 758.7 15.7 784.8 12.8C811 10 837 8 863.2 10.8C889.3 13.7 915.7 21.3 941.8 24.2C968 27 994 25 1007 24L1020 23L1020 51L1007 51C994 51 968 51 941.8 51C915.7 51 889.3 51 863.2 51C837 51 811 51 784.8 51C758.7 51 732.3 51 706.2 51C680 51 654 51 627.8 51C601.7 51 575.3 51 549.2 51C523 51 497 51 470.8 51C444.7 51 418.3 51 392.2 51C366 51 340 51 313.8 51C287.7 51 261.3 51 235.2 51C209 51 183 51 156.8 51C130.7 51 104.3 51 78.2 51C52 51 26 51 13 51L0 51Z" fill="#8f9853"></path><path d="M0 30L13 27.2C26 24.3 52 18.7 78.2 18.3C104.3 18 130.7 23 156.8 23.3C183 23.7 209 19.3 235.2 19.3C261.3 19.3 287.7 23.7 313.8 25C340 26.3 366 24.7 392.2 22.8C418.3 21 444.7 19 470.8 16.3C497 13.7 523 10.3 549.2 10.5C575.3 10.7 601.7 14.3 627.8 14.5C654 14.7 680 11.3 706.2 10.2C732.3 9 758.7 10 784.8 13.3C811 16.7 837 22.3 863.2 24.8C889.3 27.3 915.7 26.7 941.8 26.5C968 26.3 994 26.7 1007 26.8L1020 27L1020 51L1007 51C994 51 968 51 941.8 51C915.7 51 889.3 51 863.2 51C837 51 811 51 784.8 51C758.7 51 732.3 51 706.2 51C680 51 654 51 627.8 51C601.7 51 575.3 51 549.2 51C523 51 497 51 470.8 51C444.7 51 418.3 51 392.2 51C366 51 340 51 313.8 51C287.7 51 261.3 51 235.2 51C209 51 183 51 156.8 51C130.7 51 104.3 51 78.2 51C52 51 26 51 13 51L0 51Z" fill="#928f4e"></path><path d="M0 21L13 20.8C26 20.7 52 20.3 78.2 23.5C104.3 26.7 130.7 33.3 156.8 36.3C183 39.3 209 38.7 235.2 38.2C261.3 37.7 287.7 37.3 313.8 35.7C340 34 366 31 392.2 29.7C418.3 28.3 444.7 28.7 470.8 27.7C497 26.7 523 24.3 549.2 23.8C575.3 23.3 601.7 24.7 627.8 25.8C654 27 680 28 706.2 29.7C732.3 31.3 758.7 33.7 784.8 35.5C811 37.3 837 38.7 863.2 38.8C889.3 39 915.7 38 941.8 34C968 30 994 23 1007 19.5L1020 16L1020 51L1007 51C994 51 968 51 941.8 51C915.7 51 889.3 51 863.2 51C837 51 811 51 784.8 51C758.7 51 732.3 51 706.2 51C680 51 654 51 627.8 51C601.7 51 575.3 51 549.2 51C523 51 497 51 470.8 51C444.7 51 418.3 51 392.2 51C366 51 340 51 313.8 51C287.7 51 261.3 51 235.2 51C209 51 183 51 156.8 51C130.7 51 104.3 51 78.2 51C52 51 26 51 13 51L0 51Z" fill="#93874b"></path><path d="M0 37L13 36.5C26 36 52 35 78.2 34.3C104.3 33.7 130.7 33.3 156.8 34.8C183 36.3 209 39.7 235.2 41.5C261.3 43.3 287.7 43.7 313.8 41C340 38.3 366 32.7 392.2 32.3C418.3 32 444.7 37 470.8 38.2C497 39.3 523 36.7 549.2 34.5C575.3 32.3 601.7 30.7 627.8 31.7C654 32.7 680 36.3 706.2 38.2C732.3 40 758.7 40 784.8 40.3C811 40.7 837 41.3 863.2 41.7C889.3 42 915.7 42 941.8 41.3C968 40.7 994 39.3 1007 38.7L1020 38L1020 51L1007 51C994 51 968 51 941.8 51C915.7 51 889.3 51 863.2 51C837 51 811 51 784.8 51C758.7 51 732.3 51 706.2 51C680 51 654 51 627.8 51C601.7 51 575.3 51 549.2 51C523 51 497 51 470.8 51C444.7 51 418.3 51 392.2 51C366 51 340 51 313.8 51C287.7 51 261.3 51 235.2 51C209 51 183 51 156.8 51C130.7 51 104.3 51 78.2 51C52 51 26 51 13 51L0 51Z" fill="#937f49"></path><path d="M0 39L13 39.3C26 39.7 52 40.3 78.2 40.5C104.3 40.7 130.7 40.3 156.8 40.8C183 41.3 209 42.7 235.2 43.5C261.3 44.3 287.7 44.7 313.8 43.7C340 42.7 366 40.3 392.2 40.3C418.3 40.3 444.7 42.7 470.8 44C497 45.3 523 45.7 549.2 45.2C575.3 44.7 601.7 43.3 627.8 42.2C654 41 680 40 706.2 40.8C732.3 41.7 758.7 44.3 784.8 45C811 45.7 837 44.3 863.2 43C889.3 41.7 915.7 40.3 941.8 40.7C968 41 994 43 1007 44L1020 45L1020 51L1007 51C994 51 968 51 941.8 51C915.7 51 889.3 51 863.2 51C837 51 811 51 784.8 51C758.7 51 732.3 51 706.2 51C680 51 654 51 627.8 51C601.7 51 575.3 51 549.2 51C523 51 497 51 470.8 51C444.7 51 418.3 51 392.2 51C366 51 340 51 313.8 51C287.7 51 261.3 51 235.2 51C209 51 183 51 156.8 51C130.7 51 104.3 51 78.2 51C52 51 26 51 13 51L0 51Z" fill="#927748"></path></svg>