<svg id="visual" viewBox="0 0 1020 50" width="1020" height="50" xmlns="http://www.w3.org/2000/svg" xmlns:xlink="http://www.w3.org/1999/xlink" version="1.1"><path d="M0 18L13 18.2C26 18.3 52 18.7 78.2 20.8C104.3 23 130.7 27 156.8 27C183 27 209 23 235.2 19.2C261.3 15.3 287.7 11.7 313.8 10.2C340 8.7 366 9.3 392.2 11.2C418.3 13 444.7 16 470.8 17.7C497 19.3 523 19.7 549.2 19.2C575.3 18.7 601.7 17.3 627.8 14.8C654 12.3 680 8.7 706.2 6.8C732.3 5 758.7 5 784.8 5.7C811 6.3 837 7.7 863.2 11.7C889.3 15.7 915.7 22.3 941.8 21C968 19.7 994 10.3 1007 5.7L1020 1L1020 51L1007 51C994 51 968 51 941.8 51C915.7 51 889.3 51 863.2 51C837 51 811 51 784.8 51C758.7 51 732.3 51 706.2 51C680 51 654 51 627.8 51C601.7 51 575.3 51 549.2 51C523 51 497 51 470.8 51C444.7 51 418.3 51 392.2 51C366 51 340 51 313.8 51C287.7 51 261.3 51 235.2 51C209 51 183 51 156.8 51C130.7 51 104.3 51 78.2 51C52 51 26 51 13 51L0 51Z" fill="#8f9853"></path><path d="M0 11L13 13C26 15 52 19 78.2 20.2C104.3 21.3 130.7 19.7 156.8 20.3C183 21 209 24 235.2 25.5C261.3 27 287.7 27 313.8 24.3C340 21.7 366 16.3 392.2 15C418.3 13.7 444.7 16.3 470.8 20C497 23.7 523 28.3 549.2 29.5C575.3 30.7 601.7 28.3 627.8 28.2C654 28 680 30 706.2 31.3C732.3 32.7 758.7 33.3 784.8 32.5C811 31.7 837 29.3 863.2 26C889.3 22.7 915.7 18.3 941.8 19.8C968 21.3 994 28.7 1007 32.3L1020 36L1020 51L1007 51C994 51 968 51 941.8 51C915.7 51 889.3 51 863.2 51C837 51 811 51 784.8 51C758.7 51 732.3 51 706.2 51C680 51 654 51 627.8 51C601.7 51 575.3 51 549.2 51C523 51 497 51 470.8 51C444.7 51 418.3 51 392.2 51C366 51 340 51 313.8 51C287.7 51 261.3 51 235.2 51C209 51 183 51 156.8 51C130.7 51 104.3 51 78.2 51C52 51 26 51 13 51L0 51Z" fill="#928f4e"></path><path d="M0 34L13 33.2C26 32.3 52 30.7 78.2 30.5C104.3 30.3 130.7 31.7 156.8 32C183 32.3 209 31.7 235.2 29.2C261.3 26.7 287.7 22.3 313.8 22.3C340 22.3 366 26.7 392.2 26.3C418.3 26 444.7 21 470.8 19.7C497 18.3 523 20.7 549.2 20.8C575.3 21 601.7 19 627.8 19C654 19 680 21 706.2 21.3C732.3 21.7 758.7 20.3 784.8 20.8C811 21.3 837 23.7 863.2 26.8C889.3 30 915.7 34 941.8 35.8C968 37.7 994 37.3 1007 37.2L1020 37L1020 51L1007 51C994 51 968 51 941.8 51C915.7 51 889.3 51 863.2 51C837 51 811 51 784.8 51C758.7 51 732.3 51 706.2 51C680 51 654 51 627.8 51C601.7 51 575.3 51 549.2 51C523 51 497 51 470.8 51C444.7 51 418.3 51 392.2 51C366 51 340 51 313.8 51C287.7 51 261.3 51 235.2 51C209 51 183 51 156.8 51C130.7 51 104.3 51 78.2 51C52 51 26 51 13 51L0 51Z" fill="#93874b"></path><path d="M0 37L13 37.5C26 38 52 39 78.2 39.3C104.3 39.7 130.7 39.3 156.8 39.8C183 40.3 209 41.7 235.2 40.2C261.3 38.7 287.7 34.3 313.8 32.2C340 30 366 30 392.2 30C418.3 30 444.7 30 470.8 31C497 32 523 34 549.2 36.2C575.3 38.3 601.7 40.7 627.8 39.3C654 38 680 33 706.2 30.2C732.3 27.3 758.7 26.7 784.8 28.7C811 30.7 837 35.3 863.2 36.5C889.3 37.7 915.7 35.3 941.8 33.8C968 32.3 994 31.7 1007 31.3L1020 31L1020 51L1007 51C994 51 968 51 941.8 51C915.7 51 889.3 51 863.2 51C837 51 811 51 784.8 51C758.7 51 732.3 51 706.2 51C680 51 654 51 627.8 51C601.7 51 575.3 51 549.2 51C523 51 497 51 470.8 51C444.7 51 418.3 51 392.2 51C366 51 340 51 313.8 51C287.7 51 261.3 51 235.2 51C209 51 183 51 156.8 51C130.7 51 104.3 51 78.2 51C52 51 26 51 13 51L0 51Z" fill="#937f49"></path><path d="M0 48L13 47.5C26 47 52 46 78.2 45C104.3 44 130.7 43 156.8 41.5C183 40 209 38 235.2 38.5C261.3 39 287.7 42 313.8 43.3C340 44.7 366 44.3 392.2 44C418.3 43.7 444.7 43.3 470.8 44C497 44.7 523 46.3 549.2 46C575.3 45.7 601.7 43.3 627.8 41.2C654 39 680 37 706.2 37C732.3 37 758.7 39 784.8 38.7C811 38.3 837 35.7 863.2 34.3C889.3 33 915.7 33 941.8 33.7C968 34.3 994 35.7 1007 36.3L1020 37L1020 51L1007 51C994 51 968 51 941.8 51C915.7 51 889.3 51 863.2 51C837 51 811 51 784.8 51C758.7 51 732.3 51 706.2 51C680 51 654 51 627.8 51C601.7 51 575.3 51 549.2 51C523 51 497 51 470.8 51C444.7 51 418.3 51 392.2 51C366 51 340 51 313.8 51C287.7 51 261.3 51 235.2 51C209 51 183 51 156.8 51C130.7 51 104.3 51 78.2 51C52 51 26 51 13 51L0 51Z" fill="#927748"></path></svg>