<svg id="visual" viewBox="0 0 1020 50" width="1020" height="50" xmlns="http://www.w3.org/2000/svg" xmlns:xlink="http://www.w3.org/1999/xlink" version="1.1"><path d="M0 0L13 2.8C26 5.7 52 11.3 78.2 12.8C104.3 14.3 130.7 11.7 156.8 10.3C183 9 209 9 235.2 10.5C261.3 12 287.7 15 313.8 17.3C340 19.7 366 21.3 392.2 18.3C418.3 15.3 444.7 7.7 470.8 9.2C497 10.7 523 21.3 549.2 22.3C575.3 23.3 601.7 14.7 627.8 12.2C654 9.7 680 13.3 706.2 13.5C732.3 13.7 758.7 10.3 784.8 8.8C811 7.3 837 7.7 863.2 10C889.3 12.3 915.7 16.7 941.8 20C968 23.3 994 25.7 1007 26.8L1020 28L1020 51L1007 51C994 51 968 51 941.8 51C915.7 51 889.3 51 863.2 51C837 51 811 51 784.8 51C758.7 51 732.3 51 706.2 51C680 51 654 51 627.8 51C601.7 51 575.3 51 549.2 51C523 51 497 51 470.8 51C444.7 51 418.3 51 392.2 51C366 51 340 51 313.8 51C287.7 51 261.3 51 235.2 51C209 51 183 51 156.8 51C130.7 51 104.3 51 78.2 51C52 51 26 51 13 51L0 51Z" fill="#8f9853"></path><path d="M0 23L13 24.5C26 26 52 29 78.2 28.2C104.3 27.3 130.7 22.7 156.8 23.2C183 23.7 209 29.3 235.2 31.8C261.3 34.3 287.7 33.7 313.8 32C340 30.3 366 27.7 392.2 24.7C418.3 21.7 444.7 18.3 470.8 18.8C497 19.3 523 23.7 549.2 23.7C575.3 23.7 601.7 19.3 627.8 20.2C654 21 680 27 706.2 27C732.3 27 758.7 21 784.8 19.2C811 17.3 837 19.7 863.2 19.3C889.3 19 915.7 16 941.8 17.2C968 18.3 994 23.7 1007 26.3L1020 29L1020 51L1007 51C994 51 968 51 941.8 51C915.7 51 889.3 51 863.2 51C837 51 811 51 784.8 51C758.7 51 732.3 51 706.2 51C680 51 654 51 627.8 51C601.7 51 575.3 51 549.2 51C523 51 497 51 470.8 51C444.7 51 418.3 51 392.2 51C366 51 340 51 313.8 51C287.7 51 261.3 51 235.2 51C209 51 183 51 156.8 51C130.7 51 104.3 51 78.2 51C52 51 26 51 13 51L0 51Z" fill="#928f4e"></path><path d="M0 23L13 22.5C26 22 52 21 78.2 20.2C104.3 19.3 130.7 18.7 156.8 21.7C183 24.7 209 31.3 235.2 34.5C261.3 37.7 287.7 37.3 313.8 34.5C340 31.7 366 26.3 392.2 26.8C418.3 27.3 444.7 33.7 470.8 33.2C497 32.7 523 25.3 549.2 23.2C575.3 21 601.7 24 627.8 24.2C654 24.3 680 21.7 706.2 23C732.3 24.3 758.7 29.7 784.8 33.2C811 36.7 837 38.3 863.2 39C889.3 39.7 915.7 39.3 941.8 38C968 36.7 994 34.3 1007 33.2L1020 32L1020 51L1007 51C994 51 968 51 941.8 51C915.7 51 889.3 51 863.2 51C837 51 811 51 784.8 51C758.7 51 732.3 51 706.2 51C680 51 654 51 627.8 51C601.7 51 575.3 51 549.2 51C523 51 497 51 470.8 51C444.7 51 418.3 51 392.2 51C366 51 340 51 313.8 51C287.7 51 261.3 51 235.2 51C209 51 183 51 156.8 51C130.7 51 104.3 51 78.2 51C52 51 26 51 13 51L0 51Z" fill="#93874b"></path><path d="M0 29L13 29.3C26 29.7 52 30.3 78.2 32.5C104.3 34.7 130.7 38.3 156.8 40.5C183 42.7 209 43.3 235.2 43.5C261.3 43.7 287.7 43.3 313.8 41C340 38.7 366 34.3 392.2 34.3C418.3 34.3 444.7 38.7 470.8 37.8C497 37 523 31 549.2 29.8C575.3 28.7 601.7 32.3 627.8 35.5C654 38.7 680 41.3 706.2 41.7C732.3 42 758.7 40 784.8 36.8C811 33.7 837 29.3 863.2 30.3C889.3 31.3 915.7 37.7 941.8 38C968 38.3 994 32.7 1007 29.8L1020 27L1020 51L1007 51C994 51 968 51 941.8 51C915.7 51 889.3 51 863.2 51C837 51 811 51 784.8 51C758.7 51 732.3 51 706.2 51C680 51 654 51 627.8 51C601.7 51 575.3 51 549.2 51C523 51 497 51 470.8 51C444.7 51 418.3 51 392.2 51C366 51 340 51 313.8 51C287.7 51 261.3 51 235.2 51C209 51 183 51 156.8 51C130.7 51 104.3 51 78.2 51C52 51 26 51 13 51L0 51Z" fill="#937f49"></path><path d="M0 40L13 39.7C26 39.3 52 38.7 78.2 38.3C104.3 38 130.7 38 156.8 37.3C183 36.7 209 35.3 235.2 36.3C261.3 37.3 287.7 40.7 313.8 41.2C340 41.7 366 39.3 392.2 39.8C418.3 40.3 444.7 43.7 470.8 45.7C497 47.7 523 48.3 549.2 46.8C575.3 45.3 601.7 41.7 627.8 39.3C654 37 680 36 706.2 37.3C732.3 38.7 758.7 42.3 784.8 44.3C811 46.3 837 46.7 863.2 46.7C889.3 46.7 915.7 46.3 941.8 45.5C968 44.7 994 43.3 1007 42.7L1020 42L1020 51L1007 51C994 51 968 51 941.8 51C915.7 51 889.3 51 863.2 51C837 51 811 51 784.8 51C758.7 51 732.3 51 706.2 51C680 51 654 51 627.8 51C601.7 51 575.3 51 549.2 51C523 51 497 51 470.8 51C444.7 51 418.3 51 392.2 51C366 51 340 51 313.8 51C287.7 51 261.3 51 235.2 51C209 51 183 51 156.8 51C130.7 51 104.3 51 78.2 51C52 51 26 51 13 51L0 51Z" fill="#927748"></path></svg>