<svg id="visual" viewBox="0 0 1800 100" width="1800" height="100" xmlns="http://www.w3.org/2000/svg" xmlns:xlink="http://www.w3.org/1999/xlink" version="1.1"><path d="M0 33L42.8 34.2C85.7 35.3 171.3 37.7 257 38.2C342.7 38.7 428.3 37.3 514 33.8C599.7 30.3 685.3 24.7 771.2 22.8C857 21 943 23 1028.8 27.3C1114.7 31.7 1200.3 38.3 1286 38C1371.7 37.7 1457.3 30.3 1543 27.3C1628.7 24.3 1714.3 25.7 1757.2 26.3L1800 27L1800 101L1757.2 101C1714.3 101 1628.7 101 1543 101C1457.3 101 1371.7 101 1286 101C1200.3 101 1114.7 101 1028.8 101C943 101 857 101 771.2 101C685.3 101 599.7 101 514 101C428.3 101 342.7 101 257 101C171.3 101 85.7 101 42.8 101L0 101Z" fill="#8f9853"></path><path d="M0 44L42.8 44.7C85.7 45.3 171.3 46.7 257 44.5C342.7 42.3 428.3 36.7 514 37C599.7 37.3 685.3 43.7 771.2 47.8C857 52 943 54 1028.8 52.5C1114.7 51 1200.3 46 1286 46C1371.7 46 1457.3 51 1543 50.8C1628.7 50.7 1714.3 45.3 1757.2 42.7L1800 40L1800 101L1757.2 101C1714.3 101 1628.7 101 1543 101C1457.3 101 1371.7 101 1286 101C1200.3 101 1114.7 101 1028.8 101C943 101 857 101 771.2 101C685.3 101 599.7 101 514 101C428.3 101 342.7 101 257 101C171.3 101 85.7 101 42.8 101L0 101Z" fill="#928f4e"></path><path d="M0 52L42.8 53C85.7 54 171.3 56 257 58.8C342.7 61.7 428.3 65.3 514 66.2C599.7 67 685.3 65 771.2 64.5C857 64 943 65 1028.8 65.7C1114.7 66.3 1200.3 66.7 1286 63.3C1371.7 60 1457.3 53 1543 49.5C1628.7 46 1714.3 46 1757.2 46L1800 46L1800 101L1757.2 101C1714.3 101 1628.7 101 1543 101C1457.3 101 1371.7 101 1286 101C1200.3 101 1114.7 101 1028.8 101C943 101 857 101 771.2 101C685.3 101 599.7 101 514 101C428.3 101 342.7 101 257 101C171.3 101 85.7 101 42.8 101L0 101Z" fill="#93874b"></path><path d="M0 70L42.8 69C85.7 68 171.3 66 257 65.7C342.7 65.3 428.3 66.7 514 67.7C599.7 68.7 685.3 69.3 771.2 69.7C857 70 943 70 1028.8 70.5C1114.7 71 1200.3 72 1286 70.3C1371.7 68.7 1457.3 64.3 1543 63.8C1628.7 63.3 1714.3 66.7 1757.2 68.3L1800 70L1800 101L1757.2 101C1714.3 101 1628.7 101 1543 101C1457.3 101 1371.7 101 1286 101C1200.3 101 1114.7 101 1028.8 101C943 101 857 101 771.2 101C685.3 101 599.7 101 514 101C428.3 101 342.7 101 257 101C171.3 101 85.7 101 42.8 101L0 101Z" fill="#937f49"></path><path d="M0 78L42.8 77.7C85.7 77.3 171.3 76.7 257 78.5C342.7 80.3 428.3 84.7 514 85.3C599.7 86 685.3 83 771.2 82C857 81 943 82 1028.8 82.7C1114.7 83.3 1200.3 83.7 1286 84.5C1371.7 85.3 1457.3 86.7 1543 87.7C1628.7 88.7 1714.3 89.3 1757.2 89.7L1800 90L1800 101L1757.2 101C1714.3 101 1628.7 101 1543 101C1457.3 101 1371.7 101 1286 101C1200.3 101 1114.7 101 1028.8 101C943 101 857 101 771.2 101C685.3 101 599.7 101 514 101C428.3 101 342.7 101 257 101C171.3 101 85.7 101 42.8 101L0 101Z" fill="#927748"></path></svg>