<svg id="visual" viewBox="0 0 1800 100" width="1800" height="100" xmlns="http://www.w3.org/2000/svg" xmlns:xlink="http://www.w3.org/1999/xlink" version="1.1"><path d="M0 36L42.8 36.5C85.7 37 171.3 38 257 36.2C342.7 34.3 428.3 29.7 514 29.7C599.7 29.7 685.3 34.3 771.2 33.7C857 33 943 27 1028.8 25.8C1114.7 24.7 1200.3 28.3 1286 29.5C1371.7 30.7 1457.3 29.3 1543 28C1628.7 26.7 1714.3 25.3 1757.2 24.7L1800 24L1800 101L1757.2 101C1714.3 101 1628.7 101 1543 101C1457.3 101 1371.7 101 1286 101C1200.3 101 1114.7 101 1028.8 101C943 101 857 101 771.2 101C685.3 101 599.7 101 514 101C428.3 101 342.7 101 257 101C171.3 101 85.7 101 42.8 101L0 101Z" fill="#8f9853"></path><path d="M0 43L42.8 44C85.7 45 171.3 47 257 47.8C342.7 48.7 428.3 48.3 514 47.2C599.7 46 685.3 44 771.2 45.7C857 47.3 943 52.7 1028.8 54.8C1114.7 57 1200.3 56 1286 53.8C1371.7 51.7 1457.3 48.3 1543 45.5C1628.7 42.7 1714.3 40.3 1757.2 39.2L1800 38L1800 101L1757.2 101C1714.3 101 1628.7 101 1543 101C1457.3 101 1371.7 101 1286 101C1200.3 101 1114.7 101 1028.8 101C943 101 857 101 771.2 101C685.3 101 599.7 101 514 101C428.3 101 342.7 101 257 101C171.3 101 85.7 101 42.8 101L0 101Z" fill="#928f4e"></path><path d="M0 54L42.8 52.7C85.7 51.3 171.3 48.7 257 50.5C342.7 52.3 428.3 58.7 514 61C599.7 63.3 685.3 61.7 771.2 61.5C857 61.3 943 62.7 1028.8 61.5C1114.7 60.3 1200.3 56.7 1286 54.7C1371.7 52.7 1457.3 52.3 1543 51C1628.7 49.7 1714.3 47.3 1757.2 46.2L1800 45L1800 101L1757.2 101C1714.3 101 1628.7 101 1543 101C1457.3 101 1371.7 101 1286 101C1200.3 101 1114.7 101 1028.8 101C943 101 857 101 771.2 101C685.3 101 599.7 101 514 101C428.3 101 342.7 101 257 101C171.3 101 85.7 101 42.8 101L0 101Z" fill="#93874b"></path><path d="M0 79L42.8 76.8C85.7 74.7 171.3 70.3 257 68.8C342.7 67.3 428.3 68.7 514 68.5C599.7 68.3 685.3 66.7 771.2 66.5C857 66.3 943 67.7 1028.8 67.5C1114.7 67.3 1200.3 65.7 1286 65.8C1371.7 66 1457.3 68 1543 69.2C1628.7 70.3 1714.3 70.7 1757.2 70.8L1800 71L1800 101L1757.2 101C1714.3 101 1628.7 101 1543 101C1457.3 101 1371.7 101 1286 101C1200.3 101 1114.7 101 1028.8 101C943 101 857 101 771.2 101C685.3 101 599.7 101 514 101C428.3 101 342.7 101 257 101C171.3 101 85.7 101 42.8 101L0 101Z" fill="#937f49"></path><path d="M0 86L42.8 84.2C85.7 82.3 171.3 78.7 257 76.8C342.7 75 428.3 75 514 76.3C599.7 77.7 685.3 80.3 771.2 81.3C857 82.3 943 81.7 1028.8 82.5C1114.7 83.3 1200.3 85.7 1286 84.8C1371.7 84 1457.3 80 1543 77.8C1628.7 75.7 1714.3 75.3 1757.2 75.2L1800 75L1800 101L1757.2 101C1714.3 101 1628.7 101 1543 101C1457.3 101 1371.7 101 1286 101C1200.3 101 1114.7 101 1028.8 101C943 101 857 101 771.2 101C685.3 101 599.7 101 514 101C428.3 101 342.7 101 257 101C171.3 101 85.7 101 42.8 101L0 101Z" fill="#927748"></path></svg>