<svg id="visual" viewBox="0 0 1800 100" width="1800" height="100" xmlns="http://www.w3.org/2000/svg" xmlns:xlink="http://www.w3.org/1999/xlink" version="1.1"><path d="M0 23L42.8 26.2C85.7 29.3 171.3 35.7 257 34.7C342.7 33.7 428.3 25.3 514 22C599.7 18.7 685.3 20.3 771.2 24.7C857 29 943 36 1028.8 38C1114.7 40 1200.3 37 1286 35.8C1371.7 34.7 1457.3 35.3 1543 34.3C1628.7 33.3 1714.3 30.7 1757.2 29.3L1800 28L1800 101L1757.2 101C1714.3 101 1628.7 101 1543 101C1457.3 101 1371.7 101 1286 101C1200.3 101 1114.7 101 1028.8 101C943 101 857 101 771.2 101C685.3 101 599.7 101 514 101C428.3 101 342.7 101 257 101C171.3 101 85.7 101 42.8 101L0 101Z" fill="#8f9853"></path><path d="M0 53L42.8 50.7C85.7 48.3 171.3 43.7 257 43.7C342.7 43.7 428.3 48.3 514 50.5C599.7 52.7 685.3 52.3 771.2 50.5C857 48.7 943 45.3 1028.8 44.5C1114.7 43.7 1200.3 45.3 1286 45.5C1371.7 45.7 1457.3 44.3 1543 42.3C1628.7 40.3 1714.3 37.7 1757.2 36.3L1800 35L1800 101L1757.2 101C1714.3 101 1628.7 101 1543 101C1457.3 101 1371.7 101 1286 101C1200.3 101 1114.7 101 1028.8 101C943 101 857 101 771.2 101C685.3 101 599.7 101 514 101C428.3 101 342.7 101 257 101C171.3 101 85.7 101 42.8 101L0 101Z" fill="#928f4e"></path><path d="M0 46L42.8 49.7C85.7 53.3 171.3 60.7 257 61C342.7 61.3 428.3 54.7 514 52.7C599.7 50.7 685.3 53.3 771.2 54.2C857 55 943 54 1028.8 55.2C1114.7 56.3 1200.3 59.7 1286 59.3C1371.7 59 1457.3 55 1543 55.2C1628.7 55.3 1714.3 59.7 1757.2 61.8L1800 64L1800 101L1757.2 101C1714.3 101 1628.7 101 1543 101C1457.3 101 1371.7 101 1286 101C1200.3 101 1114.7 101 1028.8 101C943 101 857 101 771.2 101C685.3 101 599.7 101 514 101C428.3 101 342.7 101 257 101C171.3 101 85.7 101 42.8 101L0 101Z" fill="#93874b"></path><path d="M0 69L42.8 70.3C85.7 71.7 171.3 74.3 257 73.8C342.7 73.3 428.3 69.7 514 69.5C599.7 69.3 685.3 72.7 771.2 72.2C857 71.7 943 67.3 1028.8 66.8C1114.7 66.3 1200.3 69.7 1286 70.2C1371.7 70.7 1457.3 68.3 1543 67.3C1628.7 66.3 1714.3 66.7 1757.2 66.8L1800 67L1800 101L1757.2 101C1714.3 101 1628.7 101 1543 101C1457.3 101 1371.7 101 1286 101C1200.3 101 1114.7 101 1028.8 101C943 101 857 101 771.2 101C685.3 101 599.7 101 514 101C428.3 101 342.7 101 257 101C171.3 101 85.7 101 42.8 101L0 101Z" fill="#937f49"></path><path d="M0 81L42.8 80.5C85.7 80 171.3 79 257 80.2C342.7 81.3 428.3 84.7 514 84.5C599.7 84.3 685.3 80.7 771.2 79.3C857 78 943 79 1028.8 80.8C1114.7 82.7 1200.3 85.3 1286 85.5C1371.7 85.7 1457.3 83.3 1543 82C1628.7 80.7 1714.3 80.3 1757.2 80.2L1800 80L1800 101L1757.2 101C1714.3 101 1628.7 101 1543 101C1457.3 101 1371.7 101 1286 101C1200.3 101 1114.7 101 1028.8 101C943 101 857 101 771.2 101C685.3 101 599.7 101 514 101C428.3 101 342.7 101 257 101C171.3 101 85.7 101 42.8 101L0 101Z" fill="#927748"></path></svg>