<svg id="visual" viewBox="0 0 1800 100" width="1800" height="100" xmlns="http://www.w3.org/2000/svg" xmlns:xlink="http://www.w3.org/1999/xlink" version="1.1"><path d="M0 26L42.8 25.5C85.7 25 171.3 24 257 23.7C342.7 23.3 428.3 23.7 514 25C599.7 26.3 685.3 28.7 771.2 27.8C857 27 943 23 1028.8 24.7C1114.7 26.3 1200.3 33.7 1286 34.5C1371.7 35.3 1457.3 29.7 1543 30.7C1628.7 31.7 1714.3 39.3 1757.2 43.2L1800 47L1800 101L1757.2 101C1714.3 101 1628.7 101 1543 101C1457.3 101 1371.7 101 1286 101C1200.3 101 1114.7 101 1028.8 101C943 101 857 101 771.2 101C685.3 101 599.7 101 514 101C428.3 101 342.7 101 257 101C171.3 101 85.7 101 42.8 101L0 101Z" fill="#8f9853"></path><path d="M0 48L42.8 49.7C85.7 51.3 171.3 54.7 257 53.3C342.7 52 428.3 46 514 45.8C599.7 45.7 685.3 51.3 771.2 53C857 54.7 943 52.3 1028.8 51.5C1114.7 50.7 1200.3 51.3 1286 49.3C1371.7 47.3 1457.3 42.7 1543 42C1628.7 41.3 1714.3 44.7 1757.2 46.3L1800 48L1800 101L1757.2 101C1714.3 101 1628.7 101 1543 101C1457.3 101 1371.7 101 1286 101C1200.3 101 1114.7 101 1028.8 101C943 101 857 101 771.2 101C685.3 101 599.7 101 514 101C428.3 101 342.7 101 257 101C171.3 101 85.7 101 42.8 101L0 101Z" fill="#928f4e"></path><path d="M0 56L42.8 55.7C85.7 55.3 171.3 54.7 257 56C342.7 57.3 428.3 60.7 514 61.7C599.7 62.7 685.3 61.3 771.2 60.8C857 60.3 943 60.7 1028.8 60.5C1114.7 60.3 1200.3 59.7 1286 58.8C1371.7 58 1457.3 57 1543 57.2C1628.7 57.3 1714.3 58.7 1757.2 59.3L1800 60L1800 101L1757.2 101C1714.3 101 1628.7 101 1543 101C1457.3 101 1371.7 101 1286 101C1200.3 101 1114.7 101 1028.8 101C943 101 857 101 771.2 101C685.3 101 599.7 101 514 101C428.3 101 342.7 101 257 101C171.3 101 85.7 101 42.8 101L0 101Z" fill="#93874b"></path><path d="M0 65L42.8 67.5C85.7 70 171.3 75 257 77.3C342.7 79.7 428.3 79.3 514 76C599.7 72.7 685.3 66.3 771.2 66.5C857 66.7 943 73.3 1028.8 76.7C1114.7 80 1200.3 80 1286 77.5C1371.7 75 1457.3 70 1543 66.8C1628.7 63.7 1714.3 62.3 1757.2 61.7L1800 61L1800 101L1757.2 101C1714.3 101 1628.7 101 1543 101C1457.3 101 1371.7 101 1286 101C1200.3 101 1114.7 101 1028.8 101C943 101 857 101 771.2 101C685.3 101 599.7 101 514 101C428.3 101 342.7 101 257 101C171.3 101 85.7 101 42.8 101L0 101Z" fill="#937f49"></path><path d="M0 79L42.8 80.5C85.7 82 171.3 85 257 86.3C342.7 87.7 428.3 87.3 514 87.7C599.7 88 685.3 89 771.2 87C857 85 943 80 1028.8 78C1114.7 76 1200.3 77 1286 78.3C1371.7 79.7 1457.3 81.3 1543 83.2C1628.7 85 1714.3 87 1757.2 88L1800 89L1800 101L1757.2 101C1714.3 101 1628.7 101 1543 101C1457.3 101 1371.7 101 1286 101C1200.3 101 1114.7 101 1028.8 101C943 101 857 101 771.2 101C685.3 101 599.7 101 514 101C428.3 101 342.7 101 257 101C171.3 101 85.7 101 42.8 101L0 101Z" fill="#927748"></path></svg>