<?xml version="1.0" encoding="utf-8"?>
<svg id="visual" viewBox="214.69 34.627 488.878 525.709" width="500px" height="525px" version="1.1" xmlns="http://www.w3.org/2000/svg">
  <rect width="456.139" height="509.968" fill="#ffffff" fill-opacity="0" style="" x="224.134" y="44.701"/>
  <g transform="translate(482.06621502450855 286.63510560853786)">
    <path d="M147.3 -209.6C177 -181.1 177.7 -119.5 182.8 -67.9C188 -16.2 197.7 25.6 189.3 64.6C180.9 103.7 154.5 140 120 176C85.4 211.9 42.7 247.5 -6.7 256.6C-56 265.8 -112.1 248.6 -150.7 214C-189.4 179.4 -210.7 127.4 -229.6 73.6C-248.5 19.8 -265 -35.8 -252.2 -84C-239.4 -132.2 -197.3 -172.9 -150.4 -195.8C-103.5 -218.7 -51.7 -223.9 3.5 -228.7C58.8 -233.6 117.6 -238.1 147.3 -209.6" fill="#927748"/>
  </g>
</svg>