<svg id="visual" viewBox="0 0 1020 100" width="1020" height="100" xmlns="http://www.w3.org/2000/svg" xmlns:xlink="http://www.w3.org/1999/xlink" version="1.1"><rect x="0" y="0" width="1020" height="100" fill="none"></rect><path d="M0 26L13 28C26 30 52 34 78.2 37.5C104.3 41 130.7 44 156.8 46.3C183 48.7 209 50.3 235.2 46.5C261.3 42.7 287.7 33.3 313.8 27.5C340 21.7 366 19.3 392.2 23.5C418.3 27.7 444.7 38.3 470.8 42.2C497 46 523 43 549.2 41.2C575.3 39.3 601.7 38.7 627.8 33.8C654 29 680 20 706.2 22.3C732.3 24.7 758.7 38.3 784.8 41.8C811 45.3 837 38.7 863.2 33.3C889.3 28 915.7 24 941.8 25.8C968 27.7 994 35.3 1007 39.2L1020 43L1020 101L1007 101C994 101 968 101 941.8 101C915.7 101 889.3 101 863.2 101C837 101 811 101 784.8 101C758.7 101 732.3 101 706.2 101C680 101 654 101 627.8 101C601.7 101 575.3 101 549.2 101C523 101 497 101 470.8 101C444.7 101 418.3 101 392.2 101C366 101 340 101 313.8 101C287.7 101 261.3 101 235.2 101C209 101 183 101 156.8 101C130.7 101 104.3 101 78.2 101C52 101 26 101 13 101L0 101Z" fill="#569954"></path><path d="M0 29L13 32.3C26 35.7 52 42.3 78.2 43C104.3 43.7 130.7 38.3 156.8 36.7C183 35 209 37 235.2 40.8C261.3 44.7 287.7 50.3 313.8 54C340 57.7 366 59.3 392.2 56.5C418.3 53.7 444.7 46.3 470.8 44.2C497 42 523 45 549.2 42.8C575.3 40.7 601.7 33.3 627.8 31C654 28.7 680 31.3 706.2 36.5C732.3 41.7 758.7 49.3 784.8 50C811 50.7 837 44.3 863.2 39.2C889.3 34 915.7 30 941.8 33.3C968 36.7 994 47.3 1007 52.7L1020 58L1020 101L1007 101C994 101 968 101 941.8 101C915.7 101 889.3 101 863.2 101C837 101 811 101 784.8 101C758.7 101 732.3 101 706.2 101C680 101 654 101 627.8 101C601.7 101 575.3 101 549.2 101C523 101 497 101 470.8 101C444.7 101 418.3 101 392.2 101C366 101 340 101 313.8 101C287.7 101 261.3 101 235.2 101C209 101 183 101 156.8 101C130.7 101 104.3 101 78.2 101C52 101 26 101 13 101L0 101Z" fill="#6c9951"></path><path d="M0 72L13 69.5C26 67 52 62 78.2 58C104.3 54 130.7 51 156.8 54.5C183 58 209 68 235.2 68.3C261.3 68.7 287.7 59.3 313.8 57C340 54.7 366 59.3 392.2 59.5C418.3 59.7 444.7 55.3 470.8 58C497 60.7 523 70.3 549.2 70.7C575.3 71 601.7 62 627.8 56C654 50 680 47 706.2 46.2C732.3 45.3 758.7 46.7 784.8 49.5C811 52.3 837 56.7 863.2 57.7C889.3 58.7 915.7 56.3 941.8 59.7C968 63 994 72 1007 76.5L1020 81L1020 101L1007 101C994 101 968 101 941.8 101C915.7 101 889.3 101 863.2 101C837 101 811 101 784.8 101C758.7 101 732.3 101 706.2 101C680 101 654 101 627.8 101C601.7 101 575.3 101 549.2 101C523 101 497 101 470.8 101C444.7 101 418.3 101 392.2 101C366 101 340 101 313.8 101C287.7 101 261.3 101 235.2 101C209 101 183 101 156.8 101C130.7 101 104.3 101 78.2 101C52 101 26 101 13 101L0 101Z" fill="#7f9950"></path><path d="M0 81L13 81.2C26 81.3 52 81.7 78.2 81.7C104.3 81.7 130.7 81.3 156.8 79.3C183 77.3 209 73.7 235.2 71.8C261.3 70 287.7 70 313.8 69.7C340 69.3 366 68.7 392.2 70.8C418.3 73 444.7 78 470.8 77.2C497 76.3 523 69.7 549.2 68.2C575.3 66.7 601.7 70.3 627.8 71.2C654 72 680 70 706.2 69.8C732.3 69.7 758.7 71.3 784.8 71.2C811 71 837 69 863.2 68.7C889.3 68.3 915.7 69.7 941.8 71.7C968 73.7 994 76.3 1007 77.7L1020 79L1020 101L1007 101C994 101 968 101 941.8 101C915.7 101 889.3 101 863.2 101C837 101 811 101 784.8 101C758.7 101 732.3 101 706.2 101C680 101 654 101 627.8 101C601.7 101 575.3 101 549.2 101C523 101 497 101 470.8 101C444.7 101 418.3 101 392.2 101C366 101 340 101 313.8 101C287.7 101 261.3 101 235.2 101C209 101 183 101 156.8 101C130.7 101 104.3 101 78.2 101C52 101 26 101 13 101L0 101Z" fill="#8f9853"></path></svg>