<svg id="visual" viewBox="0 0 1200 100" width="1200" height="100" xmlns="http://www.w3.org/2000/svg" xmlns:xlink="http://www.w3.org/1999/xlink" version="1.1"><path d="M0 30L16.7 30.2C33.3 30.3 66.7 30.7 100 36.5C133.3 42.3 166.7 53.7 200 56C233.3 58.3 266.7 51.7 300 52.5C333.3 53.3 366.7 61.7 400 59C433.3 56.3 466.7 42.7 500 36.7C533.3 30.7 566.7 32.3 600 39.3C633.3 46.3 666.7 58.7 700 60.8C733.3 63 766.7 55 800 46.3C833.3 37.7 866.7 28.3 900 27.5C933.3 26.7 966.7 34.3 1000 44.3C1033.3 54.3 1066.7 66.7 1100 69.8C1133.3 73 1166.7 67 1183.3 64L1200 61" fill="none" stroke="#8F9853" stroke-width="40" stroke-linecap="round" stroke-linejoin="miter"></path></svg>