<svg id="visual" viewBox="0 0 1020 200" width="1020" height="200" fill="none" fill-opacity="0" xmlns="http://www.w3.org/2000/svg" xmlnsXlink="http://www.w3.org/1999/xlink" version="1.1"><rect x="0" y="0" width="1020" height="200"></rect><path d="M0 119L11.3 115.2C22.7 111.3 45.3 103.7 68 111.5C90.7 119.3 113.3 142.7 136 153.8C158.7 165 181.3 164 204 160C226.7 156 249.3 149 272 142.8C294.7 136.7 317.3 131.3 340 135.3C362.7 139.3 385.3 152.7 408 158C430.7 163.3 453.3 160.7 476 146.5C498.7 132.3 521.3 106.7 544 97.7C566.7 88.7 589.3 96.3 612 96.7C634.7 97 657.3 90 680 92.2C702.7 94.3 725.3 105.7 748 114.8C770.7 124 793.3 131 816 133.2C838.7 135.3 861.3 132.7 884 132C906.7 131.3 929.3 132.7 952 130C974.7 127.3 997.3 120.7 1008.7 117.3L1020 114" fill="none" stroke-linecap="round" stroke-linejoin="miter" stroke="#8F9853" stroke-width="40"></path></svg>
