<svg id="visual" viewBox="0 0 1020 100" width="1020" height="100" xmlns="http://www.w3.org/2000/svg" xmlns:xlink="http://www.w3.org/1999/xlink" version="1.1"><rect x="0" y="0" width="1020" height="100" fill="none"></rect><path d="M0 67L13 69.3C26 71.7 52 76.3 78.2 73.2C104.3 70 130.7 59 156.8 58C183 57 209 66 235.2 73.2C261.3 80.3 287.7 85.7 313.8 85.5C340 85.3 366 79.7 392.2 74.8C418.3 70 444.7 66 470.8 61.2C497 56.3 523 50.7 549.2 54.8C575.3 59 601.7 73 627.8 80.2C654 87.3 680 87.7 706.2 82.8C732.3 78 758.7 68 784.8 62C811 56 837 54 863.2 52.3C889.3 50.7 915.7 49.3 941.8 50.2C968 51 994 54 1007 55.5L1020 57L1020 0L1007 0C994 0 968 0 941.8 0C915.7 0 889.3 0 863.2 0C837 0 811 0 784.8 0C758.7 0 732.3 0 706.2 0C680 0 654 0 627.8 0C601.7 0 575.3 0 549.2 0C523 0 497 0 470.8 0C444.7 0 418.3 0 392.2 0C366 0 340 0 313.8 0C287.7 0 261.3 0 235.2 0C209 0 183 0 156.8 0C130.7 0 104.3 0 78.2 0C52 0 26 0 13 0L0 0Z" fill="#569954"></path><path d="M0 28L13 33.3C26 38.7 52 49.3 78.2 50.5C104.3 51.7 130.7 43.3 156.8 42.8C183 42.3 209 49.7 235.2 50.2C261.3 50.7 287.7 44.3 313.8 40.2C340 36 366 34 392.2 33.3C418.3 32.7 444.7 33.3 470.8 36.7C497 40 523 46 549.2 50.8C575.3 55.7 601.7 59.3 627.8 55.5C654 51.7 680 40.3 706.2 38.5C732.3 36.7 758.7 44.3 784.8 46.2C811 48 837 44 863.2 47.3C889.3 50.7 915.7 61.3 941.8 65.2C968 69 994 66 1007 64.5L1020 63L1020 0L1007 0C994 0 968 0 941.8 0C915.7 0 889.3 0 863.2 0C837 0 811 0 784.8 0C758.7 0 732.3 0 706.2 0C680 0 654 0 627.8 0C601.7 0 575.3 0 549.2 0C523 0 497 0 470.8 0C444.7 0 418.3 0 392.2 0C366 0 340 0 313.8 0C287.7 0 261.3 0 235.2 0C209 0 183 0 156.8 0C130.7 0 104.3 0 78.2 0C52 0 26 0 13 0L0 0Z" fill="#6c9951"></path><path d="M0 15L13 21.3C26 27.7 52 40.3 78.2 41C104.3 41.7 130.7 30.3 156.8 27C183 23.7 209 28.3 235.2 33.5C261.3 38.7 287.7 44.3 313.8 46.7C340 49 366 48 392.2 46.3C418.3 44.7 444.7 42.3 470.8 40.5C497 38.7 523 37.3 549.2 37.2C575.3 37 601.7 38 627.8 36.5C654 35 680 31 706.2 30.3C732.3 29.7 758.7 32.3 784.8 36.2C811 40 837 45 863.2 46.2C889.3 47.3 915.7 44.7 941.8 40.5C968 36.3 994 30.7 1007 27.8L1020 25L1020 0L1007 0C994 0 968 0 941.8 0C915.7 0 889.3 0 863.2 0C837 0 811 0 784.8 0C758.7 0 732.3 0 706.2 0C680 0 654 0 627.8 0C601.7 0 575.3 0 549.2 0C523 0 497 0 470.8 0C444.7 0 418.3 0 392.2 0C366 0 340 0 313.8 0C287.7 0 261.3 0 235.2 0C209 0 183 0 156.8 0C130.7 0 104.3 0 78.2 0C52 0 26 0 13 0L0 0Z" fill="#7f9950"></path><path d="M0 30L13 30C26 30 52 30 78.2 30.3C104.3 30.7 130.7 31.3 156.8 27.2C183 23 209 14 235.2 13C261.3 12 287.7 19 313.8 21.3C340 23.7 366 21.3 392.2 19.7C418.3 18 444.7 17 470.8 15.7C497 14.3 523 12.7 549.2 14.8C575.3 17 601.7 23 627.8 24C654 25 680 21 706.2 21C732.3 21 758.7 25 784.8 23.7C811 22.3 837 15.7 863.2 14.3C889.3 13 915.7 17 941.8 19.8C968 22.7 994 24.3 1007 25.2L1020 26L1020 0L1007 0C994 0 968 0 941.8 0C915.7 0 889.3 0 863.2 0C837 0 811 0 784.8 0C758.7 0 732.3 0 706.2 0C680 0 654 0 627.8 0C601.7 0 575.3 0 549.2 0C523 0 497 0 470.8 0C444.7 0 418.3 0 392.2 0C366 0 340 0 313.8 0C287.7 0 261.3 0 235.2 0C209 0 183 0 156.8 0C130.7 0 104.3 0 78.2 0C52 0 26 0 13 0L0 0Z" fill="#8f9853"></path></svg>